<?xml version="1.0" encoding="UTF-8" standalone="no"?>
<svg
   xmlns:dc="http://purl.org/dc/elements/1.1/"
   xmlns:cc="http://creativecommons.org/ns#"
   xmlns:rdf="http://www.w3.org/1999/02/22-rdf-syntax-ns#"
   xmlns:svg="http://www.w3.org/2000/svg"
   xmlns="http://www.w3.org/2000/svg"
   xmlns:sodipodi="http://sodipodi.sourceforge.net/DTD/sodipodi-0.dtd"
   xmlns:inkscape="http://www.inkscape.org/namespaces/inkscape"
   version="1.1"
   id="svg2"
   xml:space="preserve"
   width="1365.3333"
   height="1365.3333"
   viewBox="0 0 1365.3333 1365.3333"
   sodipodi:docname="Logo.ai"><metadata
     id="metadata8"><rdf:RDF><cc:Work
         rdf:about=""><dc:format>image/svg+xml</dc:format><dc:type
           rdf:resource="http://purl.org/dc/dcmitype/StillImage" /></cc:Work></rdf:RDF></metadata><defs
     id="defs6"><clipPath
       clipPathUnits="userSpaceOnUse"
       id="clipPath18"><path
         d="M 0,1024 H 1024 V 0 H 0 Z"
         id="path16" /></clipPath></defs><sodipodi:namedview
     pagecolor="#ffffff"
     bordercolor="#666666"
     borderopacity="1"
     objecttolerance="10"
     gridtolerance="10"
     guidetolerance="10"
     inkscape:pageopacity="0"
     inkscape:pageshadow="2"
     inkscape:window-width="640"
     inkscape:window-height="480"
     id="namedview4" /><g
     id="g10"
     inkscape:groupmode="layer"
     inkscape:label="Logo"
     transform="matrix(1.3333333,0,0,-1.3333333,0,1365.3333)"><g
       id="g12"><g
         id="g14"
         clip-path="url(#clipPath18)"><g
           id="g20"
           transform="translate(55.8496,794.5815)"><path
             d="m 0,0 c -19.882,0 -36,-16.118 -36,-36 v -103.524 h 894.387 c 49.706,0 90,40.294 90,90 V 0 Z"
             style="fill:#fdfeff;fill-opacity:1;fill-rule:nonzero;stroke:none"
             id="path22" /></g><g
           id="g24"
           transform="translate(19.7637,544.9399)"><path
             d="m 0,0 v -103.524 h 322.979 c 49.706,0 90,40.294 90,90 V 36 H 36 C 16.118,36 0,19.882 0,0"
             style="fill:#fdfeff;fill-opacity:1;fill-rule:nonzero;stroke:none"
             id="path26" /></g><g
           id="g28"
           transform="translate(122.3872,368.9424)"><path
             d="m 0,0 h -66.6 c -19.882,0 -36,-16.117 -36,-36 V -139.524 H 36 V -36 C 36,-16.117 19.882,0 0,0"
             style="fill:#fdfeff;fill-opacity:1;fill-rule:nonzero;stroke:none"
             id="path30" /></g><g
           id="g32"
           transform="translate(953.9434,580.9121)"><path
             d="m 0,0 h -146.731 c -19.883,0 -36,-16.118 -36,-36 v -69.106 h 85.268 v -116.679 h -236.668 v 185.801 c 0,19.882 -16.118,36 -36,36 h -99.564 v -257.392 c 0,-49.706 40.295,-90 90,-90 h 44.42 v -0.01 h 237.812 v -0.049 h 75.278 c 33.239,0 60.183,26.946 60.183,60.183 v 182.146 H 38 L 38,-38 C 38,-17.014 20.987,0 0,0"
             style="fill:#fdfeff;fill-opacity:1;fill-rule:nonzero;stroke:none"
             id="path34" /></g></g></g></g></svg>
